PathFileType	4	(X/Y/Z)	TVC_36_BWA_06_walk_RCNL2025.trc
DataRate	CameraRate	NumFrames	NumMarkers	Units	OrigDataRate	OrigDataStartFrame	OrigNumFrames
100	100	10	27	mm	100	179	714
Frame#	Time	R_Shoulder			L_Shoulder			C7			J_Notch			R_Elbow			L_Elbow			R_Wrist			L_Wrist			R_Asis			L_Asis			R_Psis			L_Psis			Sacral			Thoracic			Sternum			R_Thigh_Lateral			R_Knee_Lateral			R_Shank_Lateral			R_Ankle_Lateral			R_Heel			R_Toe			L_Thigh_Lateral			L_Knee_Lateral			L_Shank_Lateral			L_Ankle_Lateral			L_Heel			L_Toe		
		X1	Y1	Z1	X2	Y2	Z2	X3	Y3	Z3	X4	Y4	Z4	X5	Y5	Z5	X6	Y6	Z6	X7	Y7	Z7	X8	Y8	Z8	X9	Y9	Z9	X10	Y10	Z10	X11	Y11	Z11	X12	Y12	Z12	X13	Y13	Z13	X14	Y14	Z14	X15	Y15	Z15	X16	Y16	Z16	X17	Y17	Z17	X18	Y18	Z18	X19	Y19	Z19	X20	Y20	Z20	X21	Y21	Z21	X22	Y22	Z22	X23	Y23	Z23	X24	Y24	Z24	X25	Y25	Z25	X26	Y26	Z26	X27	Y27	Z27
179	1.78000000	-106.200157	1375.195435	545.400635	-212.667404	1365.367554	213.683105	-185.882736	1425.801636	389.834961	-41.225494	1300.518188	352.053314	-143.729813	1081.283569	636.130920	-266.120667	1077.661621	109.212631	-22.705461	890.887695	627.667908	-78.334503	975.390045	147.630524	-30.957518	891.077942	476.307190	-83.549713	898.593140	220.748764	-213.705658	904.268433	429.860046	-231.896820	897.049255	347.854553	-222.801239	900.658844	388.857300	-224.625534	1129.564087	391.386566	-0.579602	1153.722168	328.113983	-79.683067	616.731506	539.072510	-93.678848	439.789124	445.255493	-187.240799	252.204758	492.247620	-244.937668	68.757004	412.423096	-291.000000	59.086796	360.957092	-122.686127	41.264221	387.062469	-38.900093	676.820740	124.535454	37.054379	489.374115	168.312561	-1.719267	287.434082	118.931656	61.623436	79.027924	163.647232	15.653786	62.391304	206.314713	189.813766	65.402031	201.976898
180	1.79000000	-103.214539	1375.038330	544.261902	-208.454605	1364.755981	212.180954	-182.447495	1425.387085	388.338043	-37.512264	1300.170044	351.218170	-139.743652	1081.111938	635.316040	-261.814240	1077.374512	107.220673	-16.869889	891.847961	626.880890	-74.219728	975.044220	146.057060	-27.808270	890.721069	476.157684	-79.497696	897.909912	220.467056	-210.636063	904.358276	428.947388	-228.455963	897.051941	346.866425	-219.546013	900.705109	387.906906	-220.970642	1129.252563	390.232452	3.255226	1153.307373	327.736725	-78.222038	616.500244	539.159790	-92.472847	439.472229	445.601898	-187.059372	252.396957	492.576935	-244.842285	68.786156	412.651123	-290.908936	59.310005	361.170410	-122.637604	41.147446	387.338257	-35.447968	675.666687	124.847191	39.057213	487.832245	169.417328	-0.443852	286.017578	120.010735	61.475193	77.365562	165.417511	15.158306	61.028778	207.769287	189.413361	63.108105	204.364243
181	1.80000000	-100.129066	1374.902222	543.108093	-204.072647	1364.154663	210.631027	-178.897385	1424.986938	386.821442	-33.677616	1299.833740	350.385712	-135.628952	1080.949463	634.469849	-257.252106	1077.098999	105.145935	-10.770615	892.927155	625.994110	-69.905115	974.712250	144.594604	-24.555618	890.374634	475.979828	-75.412201	897.272278	220.171478	-207.528992	904.451599	427.993744	-224.979736	897.074158	345.837189	-216.254364	900.762878	386.915466	-217.226089	1128.965088	389.063965	7.202254	1152.899292	327.354584	-76.738853	616.265320	539.188232	-91.259514	439.153107	445.900299	-186.853058	252.588699	492.843933	-244.751526	68.823524	412.864807	-290.824524	59.533291	361.368073	-122.587639	41.048283	387.595276	-31.915079	674.593384	125.055283	41.232666	486.409790	170.376602	1.015469	284.727783	120.910500	61.481312	75.869095	166.983612	14.902541	59.756771	209.043518	189.217987	61.048065	206.467560
182	1.81000000	-96.936043	1374.792725	541.938721	-199.537033	1363.560913	209.041183	-175.233566	1424.604980	385.288788	-29.724915	1299.512695	349.553040	-131.387924	1080.805176	633.602783	-252.435104	1076.824463	103.005730	-4.419109	894.130615	625.011627	-65.385845	974.386108	143.244682	-21.193102	890.036804	475.773010	-71.297333	896.682922	219.858093	-204.383698	904.544678	426.998474	-221.469620	897.117371	344.766357	-212.926659	900.831024	385.882416	-213.393707	1128.704102	387.886414	11.257588	1152.501343	326.961914	-75.222847	616.020569	539.147339	-90.040787	438.831726	446.143127	-186.621231	252.778854	493.049866	-244.665390	68.871407	413.061523	-290.743835	59.761414	361.548859	-122.539391	40.964237	387.829010	-28.307510	673.599365	125.151588	43.586170	485.107849	171.180588	2.654733	283.565369	121.631912	61.630188	74.536362	168.352844	14.861272	58.582863	210.148666	189.212265	59.219120	208.289703
183	1.82000000	-93.628044	1374.716431	540.753357	-194.865158	1362.973511	207.420700	-171.457199	1424.246338	383.744141	-25.657972	1299.211914	348.716919	-127.026604	1080.689087	632.724365	-247.366394	1076.541626	100.819420	2.162714	895.462433	623.936493	-60.657639	974.059296	142.006432	-17.717215	889.705444	475.537018	-67.156898	896.145386	219.523071	-201.199402	904.635376	425.961151	-217.926971	897.184753	343.653564	-209.563187	900.910065	384.807358	-209.475403	1128.473145	386.705231	15.417044	1152.118164	326.552673	-73.663155	615.759705	539.027710	-88.819496	438.508972	446.323761	-186.361298	252.967133	493.197052	-244.584183	68.933304	413.239960	-290.664093	60.001106	361.711090	-122.495926	40.891575	388.036407	-24.628988	672.686096	125.129272	46.119942	483.928070	171.820358	4.466817	282.531311	122.175873	61.906403	73.363525	169.532303	15.003048	57.516266	211.094772	189.373138	57.614658	209.839066
184	1.83000000	-90.198288	1374.680664	539.551758	-190.075821	1362.393311	205.779800	-167.569550	1423.916626	382.191803	-21.481035	1298.937256	347.873871	-122.554634	1080.611572	631.842773	-242.051666	1076.242676	98.608109	8.940092	896.925842	622.769043	-55.717222	973.727844	140.876938	-14.128753	889.378174	475.271667	-62.994465	895.663696	219.162689	-197.975388	904.723450	424.881592	-214.352951	897.280884	342.498627	-206.164169	901.002167	383.690109	-205.473190	1128.276733	385.525604	19.676258	1151.755615	326.120544	-72.050743	615.478210	538.822449	-87.599396	438.186951	446.436523	-186.069641	253.154037	493.287964	-244.508331	69.013901	413.400024	-290.583313	60.260315	361.852753	-122.459885	40.825962	388.216003	-20.880363	671.858459	124.982941	48.832603	482.872192	172.288498	6.441779	281.626709	122.543350	62.291267	72.345261	170.528854	15.292432	56.566696	211.890289	189.671234	56.224277	211.130020
185	1.84000000	-86.641014	1374.693726	538.333618	-185.188766	1361.823364	204.129303	-163.572021	1423.623047	380.636200	-17.198704	1298.696289	347.020264	-117.984833	1080.583374	630.964905	-236.499695	1075.922363	96.394180	15.866876	898.523499	621.507629	-50.562820	973.390747	139.851624	-10.434295	889.052368	474.976746	-58.813347	895.242615	218.773300	-194.710876	904.810974	423.760101	-210.748459	897.412170	341.301697	-202.729668	901.111572	382.530899	-201.389114	1128.120605	384.352203	24.030809	1151.421021	325.658905	-70.380241	615.174988	538.527405	-86.385139	437.869049	446.476746	-185.742661	253.341064	493.324280	-244.437729	69.118988	413.542389	-290.499908	60.547184	361.971771	-122.433281	40.763115	388.368042	-17.059980	671.124634	124.708939	51.718670	481.941742	172.579834	8.567123	280.852539	122.735771	62.763725	71.474907	171.349106	15.692141	55.743019	212.541687	190.072693	55.034107	212.182724
186	1.85000000	-82.951790	1374.764648	537.098511	-180.224060	1361.268921	202.480118	-159.466293	1423.373413	379.081573	-12.815898	1298.497314	346.152161	-113.332474	1080.615723	630.096313	-230.722610	1075.577393	94.200706	22.890419	900.257935	620.150421	-45.194597	973.050903	138.924591	-6.647719	888.724731	474.651672	-54.616589	894.887268	218.351334	-191.405136	904.902710	422.597351	-207.114166	897.586426	340.063354	-199.259651	901.244568	381.330353	-197.225266	1128.011475	383.188782	28.476303	1151.122803	325.161194	-68.650864	614.853210	538.141907	-85.181755	437.559998	446.440735	-185.377487	253.531448	493.306763	-244.371109	69.255264	413.668030	-290.411957	60.869373	362.066498	-122.417336	40.699375	388.494141	-13.164874	670.494934	124.305702	54.767902	481.137573	172.692062	10.827889	280.209076	122.755539	63.301533	70.744713	171.999802	16.165081	55.052063	213.053558	190.541565	54.027431	213.021957
187	1.86000000	-79.127716	1374.902832	535.845825	-175.201691	1360.737793	200.842834	-155.254593	1423.176270	377.531921	-8.337802	1298.349976	345.265594	-108.614616	1080.720459	629.242188	-224.736038	1075.207886	92.050789	29.957517	902.132019	618.697388	-39.615013	972.715210	138.088951	-2.791454	888.391724	474.294983	-50.406902	894.603088	217.893280	-188.057327	905.005981	421.394623	-203.450394	897.812988	338.784576	-195.753860	901.409485	380.089600	-192.983826	1127.956787	382.037811	33.008430	1150.870483	324.620941	-66.866707	614.520691	537.668457	-83.993782	437.265961	446.326263	-184.972488	253.730942	493.235687	-244.305634	69.430290	413.777588	-290.316772	61.233707	362.136200	-122.412201	40.632256	388.597168	-9.192592	669.980408	123.773972	57.964653	480.459106	172.626389	13.206491	279.695343	122.606728	63.882450	70.145950	172.488159	16.676397	54.497635	213.429184	191.042374	53.185551	213.675446
188	1.87000000	-75.167702	1375.117920	534.574585	-170.140900	1360.239990	199.227264	-150.939758	1423.040894	375.990753	-3.769822	1298.264526	344.356506	-103.849625	1080.910278	628.407471	-218.559189	1074.817017	89.966972	37.019367	904.149017	617.151886	-33.829158	972.394806	137.337196	1.103350	888.049988	473.904114	-46.186558	894.395752	217.395721	-184.666702	905.131226	420.153656	-199.757126	898.102356	337.466797	-192.211914	901.616791	378.810226	-188.667053	1127.965210	380.900269	37.623009	1150.674683	324.031952	-65.036491	614.189148	537.112488	-82.823944	436.994202	446.132874	-184.527573	253.948364	493.111603	-244.236588	69.652344	413.870941	-290.210724	61.646324	362.181122	-122.416756	40.560799	388.680847	-5.143268	669.590332	123.116852	61.287258	479.903839	172.388245	15.682322	279.308441	122.295868	64.485298	69.669113	172.822327	17.195431	54.079762	213.671371	191.542572	52.488792	214.171875
